<?xml version="1.0" standalone="no"?>
<!DOCTYPE svg PUBLIC "-//W3C//DTD SVG 20010904//EN"
        "http://www.w3.org/TR/2001/REC-SVG-20010904/DTD/svg10.dtd">
<svg version="1.0" xmlns="http://www.w3.org/2000/svg"
     width="344.000000pt" height="344.000000pt" viewBox="0 0 344.000000 344.000000"
     preserveAspectRatio="xMidYMid meet">
    <metadata>
        Created by potrace 1.11, written by Peter Selinger 2001-2013
    </metadata>
    <g transform="translate(0.000000,344.000000) scale(0.100000,-0.100000)"
       fill="#000000" stroke="none">
        <path d="M1589 3416 c-2 -2 -33 -7 -69 -10 -36 -4 -80 -9 -99 -12 -50 -8 -270
-70 -313 -88 -21 -9 -40 -16 -43 -16 -6 0 -187 -93 -220 -113 -169 -103 -268
-187 -441 -371 -5 -6 -35 -45 -66 -86 -149 -199 -249 -422 -304 -679 -44 -200
-40 -498 7 -691 6 -25 13 -55 15 -68 17 -91 101 -291 176 -418 102 -175 270
-368 413 -474 33 -25 68 -52 78 -61 9 -9 30 -22 45 -30 15 -8 29 -16 32 -19
18 -18 180 -100 270 -137 198 -81 381 -116 610 -117 216 -1 255 3 465 48 27 6
158 48 187 60 18 8 35 14 38 14 6 -1 189 93 235 120 107 62 237 166 339 269
79 81 104 109 164 191 131 177 229 386 287 612 1 5 11 61 21 116 24 137 27
408 4 534 -41 236 -109 417 -229 615 -199 326 -535 596 -895 720 -44 15 -87
28 -95 30 -9 2 -34 8 -56 13 -22 6 -51 13 -65 16 -90 17 -127 24 -140 25 -50
4 -347 11 -351 7z"/>
    </g>
</svg>
